<svg xmlns="http://www.w3.org/2000/svg" viewBox="0 0 640 360"><title>Email marketing automatizado</title>
<defs><linearGradient id="b" x2="1" y2="1"><stop stop-color="#07182b"/><stop offset="1" stop-color="#030914"/></linearGradient>
<radialGradient id="g"><stop stop-color="#8d55ff" stop-opacity=".35"/><stop offset="1" stop-color="#8d55ff" stop-opacity="0"/></radialGradient>
<linearGradient id="a" x2="1" y2="1"><stop stop-color="#d5a6ff"/><stop offset="1" stop-color="#8d55ff"/></linearGradient>
<filter id="s"><feGaussianBlur stdDeviation="9"/></filter></defs>
<rect width="640" height="360" rx="26" fill="url(#b)"/><ellipse cx="320" cy="190" rx="260" ry="165" fill="url(#g)"/>

<g filter="url(#s)" opacity=".5"><rect x="185" y="115" width="270" height="165" rx="20" fill="#8d55ff"/></g>
<rect x="170" y="100" width="280" height="170" rx="20" fill="#17152e" stroke="#b27aff" stroke-width="5"/>
<path d="M180 115l130 95 130-95" fill="#2a2250" stroke="#b27aff" stroke-width="5"/>
<path d="M450 135h74M450 185h74M450 235h74" stroke="#b27aff" stroke-width="7" stroke-linecap="round"/>
<g fill="#251a4d" stroke="#b27aff" stroke-width="5"><circle cx="540" cy="135" r="15"/><circle cx="540" cy="185" r="15"/><circle cx="540" cy="235" r="15"/></g>
<path d="M520 294q45 28 78-8l-8-4 11-15" fill="none" stroke="#b27aff" stroke-width="6"/>
<path d="M130 90l38-22-9 38z" fill="#d8a6ff"/><g fill="#b27aff"><circle cx="105" cy="225" r="4"/><circle cx="520" cy="75" r="4"/></g>
</svg>