<svg xmlns="http://www.w3.org/2000/svg" viewBox="0 0 640 360"><title>Mensajería automatizada</title>
<defs><linearGradient id="b" x2="1" y2="1"><stop stop-color="#07182b"/><stop offset="1" stop-color="#030914"/></linearGradient>
<radialGradient id="g"><stop stop-color="#00cf91" stop-opacity=".35"/><stop offset="1" stop-color="#00cf91" stop-opacity="0"/></radialGradient>
<linearGradient id="a" x2="1" y2="1"><stop stop-color="#6effca"/><stop offset="1" stop-color="#00cf91"/></linearGradient>
<filter id="s"><feGaussianBlur stdDeviation="9"/></filter></defs>
<rect width="640" height="360" rx="26" fill="url(#b)"/><ellipse cx="320" cy="190" rx="260" ry="165" fill="url(#g)"/>

<rect x="105" y="62" width="205" height="250" rx="30" fill="#082c32" stroke="#20e3ac" stroke-width="6"/>
<rect x="125" y="92" width="165" height="165" rx="18" fill="#0a1725"/><path d="M150 130h110M150 165h75" stroke="#48efbd" stroke-width="8" stroke-linecap="round"/>
<path d="M150 210h90l-28 28v-15h-62z" fill="#18dca4"/>
<g transform="translate(330 130)"><circle cx="85" cy="70" r="68" fill="#142940" stroke="#51dfff" stroke-width="5"/><rect x="40" y="45" width="90" height="60" rx="30" fill="#d7f7ff"/><circle cx="68" cy="74" r="9" fill="#168cff"/><circle cx="102" cy="74" r="9" fill="#168cff"/><path d="M70 96q15 10 30 0" stroke="#168cff" stroke-width="4" fill="none"/><path d="M85 22v20" stroke="#51dfff" stroke-width="5"/><circle cx="85" cy="15" r="8" fill="#51dfff"/></g>
<g fill="#12d99f"><rect x="360" y="265" width="150" height="50" rx="18"/><path d="M390 290h85" stroke="#d5fff3" stroke-width="6" stroke-linecap="round"/></g>
</svg>